<?xml version="1.0" encoding="UTF-8" standalone="no"?>
<svg xmlns="http://www.w3.org/2000/svg" version="1.1" height="480" width="480">
  <g transform="translate(0,-572.36216)">
    <g style="fill:#ccc">
      <path style="fill:#ccc"
         d="m 104.0089,677.97888 q -7.250973,0 -11.403805,7.3169 -3.757324,6.72363 -3.757324,16.875 0,10.01953 3.757324,16.67724 4.152832,7.38281 11.403805,7.38281 7.11914,0 11.20606,-7.38281 3.75732,-6.65771 3.75732,-16.67724 0,-10.15137 -3.75732,-16.875 -4.08692,-7.3169 -11.20606,-7.3169 z m 0,3.36182 q 5.27344,0 8.30567,6.26221 2.76855,5.73486 2.76855,14.56787 0,8.63525 -2.76855,14.43603 -3.03223,6.32813 -8.30567,6.32813 -5.40527,0 -8.437496,-6.32813 -2.768555,-5.80078 -2.768555,-14.43603 0,-8.83301 2.768555,-14.56787 3.032226,-6.26221 8.437496,-6.26221 z m 31.44287,47.79053 0,-50.82276 q 0,-0.98877 -0.65918,-1.51611 -0.52734,-0.46143 -1.31835,-0.46143 -0.85694,0 -1.38428,0.46143 -0.59326,0.52734 -0.59326,1.51611 l 0,21.55518 -11.27198,0 q -0.92285,0 -1.38427,0.46142 -0.46143,0.52735 -0.46143,1.18653 0.0659,0.65918 0.59326,1.18652 0.59326,0.52734 1.58203,0.52734 l 10.94239,0 0,25.90577 q 0,1.1206 0.59326,1.77978 0.52734,0.59326 1.38428,0.59326 0.79101,0 1.31835,-0.59326 0.65918,-0.7251 0.65918,-1.77978 z" />
      <path style="fill:#ccc"
         d="m 170.78381,679.69275 q 0,10.34912 -4.08692,22.28027 -4.28467,12.4585 -11.14013,21.02783 -0.7251,0.79102 -0.7251,1.64795 0.0659,0.7251 0.59326,1.18653 0.52734,0.46142 1.25244,0.46142 0.79102,-0.0659 1.38428,-0.72509 4.61426,-6.13038 8.04199,-12.78809 2.63672,-5.33936 4.48242,-10.81055 3.95508,4.94385 8.17383,11.46973 4.021,6.26221 6.5918,11.40381 0.3955,0.85693 1.25244,1.1206 0.79101,0.19776 1.51611,-0.13183 0.79102,-0.39551 0.98877,-1.18653 0.32959,-0.85693 -0.19775,-1.77978 -3.16407,-5.80078 -7.64649,-12.26074 -4.21875,-6.19629 -9.42627,-12.59034 1.31836,-5.07568 2.04346,-9.75586 0.79102,-4.81201 0.79102,-8.56933 0,-0.92285 -0.65918,-1.4502 -0.52735,-0.52734 -1.31836,-0.52734 -0.79102,0 -1.31836,0.52734 -0.59326,0.52735 -0.59326,1.4502 z m 32.16796,49.63623 0,-51.02051 q 0,-0.98877 -0.65918,-1.51611 -0.52734,-0.46143 -1.31835,-0.46143 -0.85694,0 -1.38428,0.46143 -0.59326,0.52734 -0.59326,1.51611 l 0,21.22559 -17.66602,0 q -0.98877,0 -1.58203,0.46142 -0.52734,0.46143 -0.52734,1.18653 0,0.65918 0.59326,1.1206 0.59326,0.52735 1.64795,0.52735 l 17.53418,0 0,26.49902 q 0,0.98877 0.59326,1.58203 0.52734,0.59326 1.38428,0.59326 0.79101,0 1.31835,-0.59326 0.65918,-0.59326 0.65918,-1.58203 z" />
      <path style="fill:#ccc"
         d="m 249.22619,677.64929 q -11.07422,0 -17.27051,4.48242 -5.73486,4.21875 -5.73486,11.0083 0,6.65772 5.73486,10.81055 6.19629,4.41651 17.27051,4.41651 11.0083,0 17.20459,-4.41651 5.80078,-4.15283 5.80078,-10.81055 0,-6.78955 -5.80078,-11.0083 -6.19629,-4.48242 -17.20459,-4.48242 z m 0,3.42774 q 9.22851,0 14.37012,3.42773 4.81201,3.22998 4.81201,8.63525 0,5.27344 -4.81201,8.50342 -5.14161,3.36182 -14.37012,3.36182 -9.29443,0 -14.43604,-3.36182 -4.74609,-3.16406 -4.74609,-8.50342 0,-5.40527 4.74609,-8.63525 5.14161,-3.42773 14.43604,-3.42773 z m -1.91162,28.80615 0,13.64502 -23.66455,0 q -0.92285,0 -1.4502,0.46142 -0.46142,0.52735 -0.52734,1.18653 -0.0659,0.65918 0.32959,1.18652 0.39551,0.52734 1.1206,0.52734 l 51.74561,0 q 0.85693,0 1.38428,-0.52734 0.52734,-0.52734 0.52734,-1.18652 0,-0.65918 -0.52734,-1.18653 -0.52735,-0.46142 -1.4502,-0.46142 l -23.66455,0 0,-13.38135 q 0,-0.92285 -0.65918,-1.45019 -0.52734,-0.52735 -1.25244,-0.52735 -0.79102,-0.0659 -1.31836,0.39551 -0.59326,0.46143 -0.59326,1.31836 z" />
      <path style="fill:#ccc"
         d="m 304.86095,679.29724 q 0,5.53711 -3.36181,12.26074 -4.08692,8.17383 -11.0083,12.91993 -0.92285,0.59326 -1.05469,1.38427 -0.13184,0.79102 0.32959,1.38428 0.39551,0.65918 1.1206,0.7251 0.79102,0.13183 1.58204,-0.39551 5.00976,-3.88916 8.17382,-7.84424 2.76856,-3.42773 5.33936,-8.76709 4.61426,3.42774 8.04199,6.85547 3.55957,3.55957 6.72363,7.84424 0.59327,0.79101 1.4502,0.92285 0.7251,0.13184 1.38428,-0.32959 0.59326,-0.46143 0.7251,-1.18652 0.0659,-0.85694 -0.52735,-1.71387 -3.6914,-4.81201 -7.11914,-8.10791 -3.69141,-3.49365 -9.49219,-7.64648 0.7251,-2.24122 1.05469,-3.88916 0.52734,-2.30713 0.52734,-4.41651 0,-0.98877 -0.65918,-1.51611 -0.52734,-0.46143 -1.31835,-0.46143 -0.79102,0 -1.31836,0.46143 -0.59327,0.52734 -0.59327,1.51611 z m 33.09082,25.04883 0,-26.30127 q 0,-0.85693 -0.65918,-1.31836 -0.52734,-0.46143 -1.31835,-0.46143 -0.85694,0 -1.38428,0.46143 -0.59326,0.52734 -0.59326,1.38428 l 0,26.23535 q 0,0.92285 0.59326,1.51611 0.52734,0.52735 1.38428,0.52735 0.79101,0 1.31835,-0.52735 0.65918,-0.59326 0.65918,-1.51611 z m -3.95507,7.11914 0,4.08691 -34.14551,0 0,-4.08691 q 0,-0.92285 -0.65918,-1.4502 -0.52734,-0.46142 -1.31836,-0.46142 -0.79102,0 -1.31836,0.46142 -0.59326,0.52735 -0.59326,1.4502 l 0,13.5791 q 0,2.10938 1.25244,3.42774 1.31836,1.38427 3.62549,1.38427 l 31.83838,0 q 2.43896,0 3.88916,-1.38427 1.38427,-1.25245 1.38427,-3.2959 l 0,-13.71094 q 0,-0.92285 -0.65918,-1.4502 -0.52734,-0.46142 -1.31835,-0.46142 -0.85694,0 -1.38428,0.46142 -0.59326,0.52735 -0.59326,1.4502 z m 0,7.44873 0,5.40527 q 0,1.18653 -0.52735,1.64795 -0.52734,0.52735 -1.91162,0.52735 l -29.20166,0 q -1.38428,0 -1.97754,-0.59326 -0.52734,-0.52735 -0.52734,-1.64795 l 0,-5.33936 34.14551,0 z" />
      <path style="fill:#ccc"
         d="m 373.15197,679.69275 q 0,10.67871 -3.49365,21.81885 -4.08692,13.11767 -11.60156,21.48925 -0.7251,0.7251 -0.7251,1.58204 0,0.72509 0.59326,1.25244 0.52734,0.46142 1.25244,0.3955 0.79102,0 1.38428,-0.65917 5.07568,-6.19629 8.37158,-12.98584 3.09814,-6.26221 5.40527,-14.50196 3.42774,4.41651 7.64649,12.91992 3.42773,6.85547 5.99853,13.31543 0.39551,0.92286 1.12061,1.31836 0.7251,0.39551 1.38428,0.13184 0.72509,-0.32959 0.98877,-1.05469 0.32959,-0.79101 -0.0659,-1.8457 -2.37305,-6.45996 -6.52588,-14.04053 -4.48242,-8.17383 -9.49219,-14.69971 0.65918,-3.16406 1.12061,-7.11914 0.52734,-4.08691 0.52734,-7.31689 0,-0.92285 -0.65918,-1.4502 -0.52734,-0.52734 -1.31836,-0.52734 -0.79101,0 -1.31836,0.52734 -0.59326,0.52735 -0.59326,1.4502 z m 32.2998,49.70215 0,-51.28418 q 0,-0.85694 -0.65918,-1.38428 -0.52734,-0.39551 -1.31835,-0.39551 -0.85694,0 -1.38428,0.39551 -0.59326,0.52734 -0.59326,1.38428 l 0,51.28418 q 0,0.92285 0.59326,1.51611 0.52734,0.52734 1.38428,0.52734 0.79101,0 1.31835,-0.52734 0.65918,-0.59326 0.65918,-1.51611 z" />
      <path style="fill:#ccc"
         d="m 114.22619,762.02429 q -11.07422,0 -17.270509,4.48242 -5.734863,4.21875 -5.734863,11.0083 0,6.65772 5.734863,10.81055 6.196289,4.41651 17.270509,4.41651 11.0083,0 17.20459,-4.41651 5.80078,-4.15283 5.80078,-10.81055 0,-6.78955 -5.80078,-11.0083 -6.19629,-4.48242 -17.20459,-4.48242 z m 0,3.42774 q 9.22851,0 14.37012,3.42773 4.81201,3.22998 4.81201,8.63525 0,5.27344 -4.81201,8.50342 -5.14161,3.36182 -14.37012,3.36182 -9.29443,0 -14.436036,-3.36182 -4.746094,-3.16406 -4.746094,-8.50342 0,-5.40527 4.746094,-8.63525 5.141606,-3.42773 14.436036,-3.42773 z m -1.91162,28.80615 0,13.64502 -23.664553,0 q -0.922852,0 -1.450196,0.46142 -0.461425,0.52735 -0.527343,1.18653 -0.06592,0.65918 0.32959,1.18652 0.395507,0.52734 1.120605,0.52734 l 51.745607,0 q 0.85693,0 1.38428,-0.52734 0.52734,-0.52734 0.52734,-1.18652 0,-0.65918 -0.52734,-1.18653 -0.52735,-0.46142 -1.4502,-0.46142 l -23.66455,0 0,-13.38135 q 0,-0.92285 -0.65918,-1.45019 -0.52734,-0.52735 -1.25244,-0.52735 -0.79102,-0.0659 -1.31836,0.39551 -0.59326,0.46143 -0.59326,1.31836 z" />
      <path style="fill:#ccc"
         d="m 159.24816,806.18933 q -1.71387,0 -2.70264,1.12061 -0.85693,1.05468 -0.85693,2.63672 0,1.45019 0.85693,2.50488 0.98877,1.18652 2.70264,1.18652 1.64795,0 2.63672,-1.18652 0.92285,-1.05469 0.92285,-2.50488 0,-1.58204 -0.92285,-2.63672 -0.98877,-1.12061 -2.63672,-1.12061 z" />
    </g>
    <g style="fill:#ccc">
      <path style="fill:#ccc"
         d="m 112.16889,876.00806 0,5.54687 q 0,1.01563 -0.42969,1.40625 -0.42968,0.35156 -1.44531,0.35156 l -17.968748,0 q -1.054688,0 -1.484375,-0.39062 -0.390625,-0.39063 -0.390625,-1.32813 l 0,-5.58593 21.718748,0 z m 0,-6.83594 0,4.80469 -21.718748,0 0,-4.80469 q 0,-0.58594 -0.390625,-0.89844 -0.3125,-0.27344 -0.78125,-0.27344 -0.507813,0 -0.820313,0.27344 -0.351562,0.35156 -0.351562,0.9375 l 0,12.85156 q 0,1.52344 1.015625,2.38282 0.976562,0.82031 2.578125,0.82031 l 19.023438,0 q 1.79687,0 2.77344,-0.85938 1.01562,-0.85937 1.01562,-2.5 l 0,-12.8125 q 0,-0.54687 -0.39062,-0.85937 -0.3125,-0.27344 -0.78125,-0.27344 -0.50782,0 -0.82032,0.3125 -0.35156,0.3125 -0.35156,0.89844 z m -11.99219,18.24219 0,8.08593 -14.023433,0 q -0.546875,0 -0.859375,0.27344 -0.273438,0.3125 -0.3125,0.70313 -0.03906,0.39062 0.195312,0.70312 0.234375,0.3125 0.664063,0.3125 l 30.664063,0 q 0.50781,0 0.82031,-0.3125 0.3125,-0.3125 0.3125,-0.70312 0,-0.39063 -0.3125,-0.70313 -0.3125,-0.27344 -0.85937,-0.27344 l -14.02344,0 0,-7.92968 q 0,-0.54688 -0.39063,-0.85938 -0.3125,-0.3125 -0.74218,-0.3125 -0.46875,-0.0391 -0.78125,0.23438 -0.35157,0.27343 -0.35157,0.78125 z" />
      <path style="fill:#ccc"
         d="m 153.41889,868.54712 -21.36719,0 q -1.91406,0 -2.96875,1.05469 -0.97656,1.05468 -0.97656,2.85156 l 0,9.33594 q 0,1.5625 0.97656,2.5 0.97657,0.97656 2.73438,0.97656 l 22.1875,0 q 0.97656,0 0.9375,-0.97656 0,-0.97657 -1.01563,-0.97657 l -21.91406,0 q -0.85937,0 -1.21094,-0.35156 -0.35156,-0.3125 -0.35156,-1.05469 l 0,-9.92187 q 0,-0.74219 0.39063,-1.09375 0.39062,-0.3125 1.25,-0.3125 l 21.52343,0 q 0.42969,0 0.66407,-0.35156 0.23437,-0.27344 0.23437,-0.66407 -0.0391,-0.42968 -0.3125,-0.70312 -0.27344,-0.3125 -0.78125,-0.3125 z m 3.04688,26.95312 -30.3125,0 q -1.17188,0 -1.17188,0.97657 0,1.01562 1.17188,1.01562 l 30.35156,0 q 0.50781,0 0.82031,-0.3125 0.3125,-0.3125 0.3125,-0.70312 0,-0.39063 -0.3125,-0.70313 -0.3125,-0.27344 -0.85937,-0.27344 z" />
      <path style="fill:#ccc"
         d="m 191.15327,867.96118 -21.83594,0 q -1.17188,0 -1.21094,0.97656 0,1.01563 1.17188,1.01563 l 21.21093,0 q 0.85938,0 1.25,0.23437 0.42969,0.27344 0.42969,0.85938 l 0,0.9375 q 0,0.46875 -0.46875,0.74219 -0.46875,0.3125 -1.28906,0.3125 l -19.14063,0 q -1.48437,0 -2.34375,0.66406 -0.82031,0.70312 -0.82031,1.95312 l 0,1.79688 q 0,1.28906 0.78125,1.95312 0.78125,0.66407 2.38281,0.66407 l 22.57813,0 q 0.50781,0 0.78125,-0.3125 0.27344,-0.3125 0.27344,-0.70313 0,-0.39062 -0.3125,-0.70312 -0.3125,-0.27344 -0.85938,-0.27344 l -21.875,0 q -0.82031,0 -1.13281,-0.3125 -0.27344,-0.23438 -0.27344,-0.70313 l 0,-1.05468 q 0,-0.46875 0.27344,-0.70313 0.35156,-0.27344 1.25,-0.27344 l 19.45312,0 q 1.48438,0 2.22657,-0.58593 0.85937,-0.625 0.85937,-1.95313 l 0,-2.14844 q 0,-1.13281 -0.9375,-1.79687 -0.85937,-0.58594 -2.42187,-0.58594 z m 5.3125,14.72656 -30.3125,0 q -1.13282,0 -1.17188,0.9375 0,0.97657 1.09375,0.97657 l 30.54688,0 q 0.46875,0 0.78125,-0.3125 0.23437,-0.27344 0.23437,-0.66407 0,-0.39062 -0.3125,-0.66406 -0.3125,-0.27344 -0.85937,-0.27344 z m -5.54688,4.6875 -21.67969,0 q -1.17187,0 -1.21093,0.97657 0,1.01562 1.17187,1.01562 l 21.44531,0 q 0.82032,0 1.17188,0.27344 0.35156,0.3125 0.35156,0.97656 l 0,0.97656 q 0,0.50782 -0.39062,0.74219 -0.35157,0.23438 -1.05469,0.23438 l -19.60938,0 q -1.44531,0 -2.22656,0.74218 -0.78125,0.78125 -0.78125,2.07032 l 0,1.71875 q 0,1.21093 0.74219,1.91406 0.74219,0.74219 2.07031,0.74219 l 22.96875,0 q 0.50781,0 0.78125,-0.3125 0.27344,-0.3125 0.27344,-0.70313 -0.0391,-0.39062 -0.3125,-0.70312 -0.35156,-0.27344 -0.89844,-0.27344 l -21.95312,0 q -0.70313,0 -1.01563,-0.23438 -0.3125,-0.23437 -0.3125,-0.82031 l 0,-0.9375 q 0,-0.58594 0.27344,-0.89844 0.3125,-0.3125 1.09375,-0.3125 l 19.80469,0 q 1.25,0 2.07031,-0.82031 0.82031,-0.74219 0.82031,-1.875 l 0,-1.875 q 0,-1.21094 -1.09375,-1.95312 -1.01562,-0.66407 -2.5,-0.66407 z" />
      <path style="fill:#ccc"
         d="m 227.87202,869.48462 q 0,4.96094 -2.46094,9.6875 -2.38281,4.57031 -6.32813,7.65625 -0.50781,0.35156 -0.58593,0.85937 -0.0391,0.42969 0.23437,0.78125 0.3125,0.3125 0.70313,0.39063 0.46875,0.0391 0.85937,-0.27344 2.8125,-2.30469 4.96094,-5.11719 1.67969,-2.26562 2.85156,-4.6875 2.38281,1.75782 4.53125,3.82813 2.38281,2.26562 4.45313,4.88281 0.35156,0.42969 0.89843,0.46875 0.42969,0 0.82032,-0.3125 0.35156,-0.35156 0.39062,-0.82031 0.0391,-0.54688 -0.35156,-1.05469 -2.46094,-2.77344 -4.84375,-4.88281 -2.42188,-2.1875 -5.11719,-4.02344 0.66406,-1.79687 0.97656,-3.71094 0.35157,-1.83593 0.35157,-3.67187 0,-0.54688 -0.39063,-0.85938 -0.3125,-0.27343 -0.78125,-0.27343 -0.50781,0 -0.82031,0.27343 -0.35156,0.3125 -0.35156,0.85938 z m 19.375,20.625 0,-21.5625 q 0,-0.50781 -0.39063,-0.78125 -0.3125,-0.27344 -0.78125,-0.27344 -0.50781,0 -0.82031,0.27344 -0.35156,0.3125 -0.35156,0.82031 l 0,7.1875 -10.11719,0 q -0.58594,0 -0.89844,0.3125 -0.27344,0.27344 -0.27344,0.70313 0,0.39062 0.3125,0.66406 0.35157,0.35156 0.9375,0.35156 l 10.03907,0 0,12.30469 q 0,0.58594 0.35156,0.9375 0.3125,0.3125 0.82031,0.3125 0.46875,0 0.78125,-0.3125 0.39063,-0.35156 0.39063,-0.9375 z m -22.77344,0.46875 q 0,-0.625 -0.39063,-0.97656 -0.3125,-0.3125 -0.78125,-0.3125 -0.50781,0 -0.82031,0.3125 -0.35156,0.35156 -0.35156,0.97656 l 0,5.19531 q 0,1.71875 1.09375,2.61719 1.01562,0.85937 2.77344,0.85937 l 21.44531,0 q 0.97656,0 0.97656,-1.01562 0,-0.97656 -0.97656,-0.97656 l -21.05469,0 q -1.13281,0 -1.52344,-0.35157 -0.39062,-0.39062 -0.39062,-1.44531 l 0,-4.88281 z" />
      <path style="fill:#ccc"
         d="m 273.41889,868.70337 -9.49219,0 q -1.75781,0 -2.8125,0.97656 -1.01562,0.89844 -1.01562,2.38281 l 0,9.64844 q 0,1.67969 1.01562,2.65625 1.01563,0.97656 2.8125,0.97656 4.60938,0 7.03125,-0.27343 3.20313,-0.35157 5.39063,-1.28907 0.46875,-0.23437 0.66406,-0.66406 0.15625,-0.39062 0,-0.78125 -0.15625,-0.39062 -0.54687,-0.50781 -0.42969,-0.15625 -1.01563,0.11719 -2.22656,0.89843 -5.11719,1.21093 -2.1875,0.27344 -6.21093,0.27344 -1.05469,0 -1.40625,-0.39062 -0.3125,-0.35157 -0.3125,-1.25 l 0,-4.14063 9.92187,0 q 0.54688,0 0.89844,-0.3125 0.3125,-0.3125 0.3125,-0.70312 0,-0.39063 -0.3125,-0.70313 -0.35156,-0.27344 -0.89844,-0.27344 l -9.92187,0 0,-3.16406 q 0,-0.85937 0.35156,-1.32812 0.42969,-0.46875 1.28906,-0.46875 l 9.41406,0 q 0.54688,0 0.89844,-0.3125 0.3125,-0.3125 0.3125,-0.70313 0,-0.39062 -0.3125,-0.70312 -0.35156,-0.27344 -0.9375,-0.27344 z m 12.61719,-0.0781 0,8.63282 -5.625,0 0,-8.75 q 0,-1.01563 -1.17188,-1.01563 -1.13281,0 -1.13281,1.01563 l 0,15.54687 q 0,0.58594 0.35156,0.97656 0.3125,0.3125 0.78125,0.3125 0.46875,0 0.78125,-0.3125 0.39063,-0.39062 0.39063,-0.97656 l 0,-4.76562 5.625,0 0,4.76562 q 0,0.58594 0.35156,0.97656 0.3125,0.3125 0.78125,0.3125 0.42969,0 0.74219,-0.3125 0.39062,-0.39062 0.39062,-0.97656 l 0,-15.39062 q 0,-1.13282 -1.13281,-1.13282 -1.13281,0 -1.13281,1.09375 z m -1.44531,20.74219 -22.38282,0 q -1.17187,0 -1.17187,1.01563 0,1.01562 1.17187,1.01562 l 22.30469,0 q 0.78125,0 1.17188,0.3125 0.35156,0.3125 0.35156,0.97656 l 0,6.32813 q 0,0.54687 0.35156,0.89844 0.3125,0.27343 0.78125,0.27343 0.42969,0 0.74219,-0.27343 0.39062,-0.35157 0.39062,-0.89844 l 0,-6.44531 q 0,-1.44532 -1.01562,-2.34375 -1.01563,-0.85938 -2.69531,-0.85938 z" />
      <path style="fill:#ccc"
         d="m 314.31733,868.23462 -10.23438,0 q -1.09375,0 -1.09375,0.97656 0,1.01563 1.09375,1.01563 l 10.3125,0 q 1.05469,0 1.01563,-1.01563 0,-0.97656 -1.09375,-0.97656 z m 4.14062,5.50781 -18.59375,0 q -1.09375,0 -1.09375,0.97656 0,0.97657 1.09375,0.97657 l 18.67188,0 q 0.50781,0 0.82031,-0.3125 0.27344,-0.27344 0.27344,-0.66407 0,-0.42968 -0.3125,-0.70312 -0.3125,-0.27344 -0.85938,-0.27344 z m -9.14062,5 q -4.375,0 -6.91406,2.89063 -2.30469,2.61718 -2.30469,6.40625 0,3.75 2.30469,6.40625 2.53906,2.92968 6.91406,2.92968 4.25781,0 6.83594,-2.92968 2.30468,-2.65625 2.30468,-6.40625 0,-3.75 -2.30468,-6.40625 -2.57813,-2.89063 -6.83594,-2.89063 z m 0,1.99219 q 3.20312,0 5.11719,2.26562 1.71875,2.03125 1.71875,5.03907 0,2.96875 -1.71875,5 -1.91407,2.30468 -5.11719,2.30468 -3.28125,0 -5.19531,-2.30468 -1.71875,-2.03125 -1.71875,-5 0,-3.00782 1.71875,-5.03907 1.91406,-2.26562 5.19531,-2.26562 z m 16.79687,2.14844 0,-14.29688 q 0,-0.50781 -0.39062,-0.82031 -0.3125,-0.23438 -0.78125,-0.23438 -0.46875,0 -0.78125,0.23438 -0.35156,0.3125 -0.35156,0.82031 l 0,30.46875 q 0,0.50781 0.35156,0.82031 0.3125,0.3125 0.78125,0.3125 0.46875,0 0.78125,-0.3125 0.39062,-0.3125 0.39062,-0.82031 l 0,-14.25781 4.33594,0 q 0.9375,0 0.9375,-0.97656 0,-0.9375 -0.9375,-0.9375 l -4.33594,0 z" />
      <path style="fill:#ccc"
         d="m 347.63764,869.28931 q 0,3.28125 -1.99219,7.26562 -2.42187,4.84375 -6.52343,7.65625 -0.54688,0.35156 -0.625,0.82031 -0.0781,0.46875 0.19531,0.82032 0.23437,0.39062 0.66406,0.42968 0.46875,0.0781 0.9375,-0.23437 2.96875,-2.30469 4.84375,-4.64844 1.64063,-2.03125 3.16406,-5.19531 2.73438,2.03125 4.76563,4.0625 2.10937,2.10937 3.98437,4.64844 0.35157,0.46875 0.85938,0.54687 0.42969,0.0781 0.82031,-0.19531 0.35156,-0.27344 0.42969,-0.70313 0.0391,-0.50781 -0.3125,-1.01562 -2.1875,-2.85156 -4.21875,-4.80469 -2.1875,-2.07031 -5.625,-4.53125 0.42969,-1.32812 0.625,-2.30469 0.3125,-1.36718 0.3125,-2.61718 0,-0.58594 -0.39063,-0.89844 -0.3125,-0.27344 -0.78125,-0.27344 -0.46875,0 -0.78125,0.27344 -0.35156,0.3125 -0.35156,0.89844 z m 19.60938,14.84375 0,-15.58594 q 0,-0.50781 -0.39063,-0.78125 -0.3125,-0.27344 -0.78125,-0.27344 -0.50781,0 -0.82031,0.27344 -0.35156,0.3125 -0.35156,0.82031 l 0,15.54688 q 0,0.54687 0.35156,0.89843 0.3125,0.3125 0.82031,0.3125 0.46875,0 0.78125,-0.3125 0.39063,-0.35156 0.39063,-0.89843 z m -2.34375,4.21875 0,2.42187 -20.23438,0 0,-2.42187 q 0,-0.54688 -0.39062,-0.85938 -0.3125,-0.27344 -0.78125,-0.27344 -0.46875,0 -0.78125,0.27344 -0.35157,0.3125 -0.35157,0.85938 l 0,8.04687 q 0,1.25 0.74219,2.03125 0.78125,0.82031 2.14844,0.82031 l 18.86719,0 q 1.44531,0 2.30468,-0.82031 0.82032,-0.74219 0.82032,-1.95312 l 0,-8.125 q 0,-0.54688 -0.39063,-0.85938 -0.3125,-0.27344 -0.78125,-0.27344 -0.50781,0 -0.82031,0.27344 -0.35156,0.3125 -0.35156,0.85938 z m 0,4.41406 0,3.20312 q 0,0.70313 -0.3125,0.97657 -0.3125,0.3125 -1.13282,0.3125 l -17.30468,0 q -0.82032,0 -1.17188,-0.35157 -0.3125,-0.3125 -0.3125,-0.97656 l 0,-3.16406 20.23438,0 z" />
      <path style="fill:#ccc"
         d="m 388.10639,869.52368 q 0,6.32813 -2.07031,12.92969 -2.42188,7.77344 -6.875,12.73437 -0.42969,0.42969 -0.42969,0.9375 0,0.42969 0.35156,0.74219 0.3125,0.27344 0.74219,0.23438 0.46875,0 0.82031,-0.39063 3.00782,-3.67187 4.96094,-7.69531 1.83594,-3.71094 3.20313,-8.59375 2.03125,2.61719 4.53125,7.65625 2.03125,4.0625 3.55468,7.89062 0.23438,0.54688 0.66407,0.78125 0.42968,0.23438 0.82031,0.0781 0.42969,-0.19531 0.58594,-0.625 0.19531,-0.46875 -0.0391,-1.09375 -1.40625,-3.82813 -3.86718,-8.32031 -2.65625,-4.84375 -5.625,-8.71094 0.39062,-1.875 0.66406,-4.21875 0.3125,-2.42188 0.3125,-4.33594 0,-0.54687 -0.39063,-0.85937 -0.3125,-0.3125 -0.78125,-0.3125 -0.46875,0 -0.78125,0.3125 -0.35156,0.3125 -0.35156,0.85937 z m 19.14063,29.45313 0,-30.39063 q 0,-0.50781 -0.39063,-0.82031 -0.3125,-0.23438 -0.78125,-0.23438 -0.50781,0 -0.82031,0.23438 -0.35156,0.3125 -0.35156,0.82031 l 0,30.39063 q 0,0.54687 0.35156,0.89843 0.3125,0.3125 0.82031,0.3125 0.46875,0 0.78125,-0.3125 0.39063,-0.35156 0.39063,-0.89843 z" />
      <path style="fill:#ccc"
         d="m 101.30952,918.31274 q -6.562503,0 -10.234378,2.65625 -3.398438,2.5 -3.398438,6.52344 0,3.94531 3.398438,6.40625 3.671875,2.61719 10.234378,2.61719 6.52343,0 10.19531,-2.61719 3.4375,-2.46094 3.4375,-6.40625 0,-4.02344 -3.4375,-6.52344 -3.67188,-2.65625 -10.19531,-2.65625 z m 0,2.03125 q 5.46875,0 8.51562,2.03125 2.85156,1.91407 2.85156,5.11719 0,3.125 -2.85156,5.03906 -3.04687,1.99219 -8.51562,1.99219 -5.507816,0 -8.554691,-1.99219 -2.8125,-1.875 -2.8125,-5.03906 0,-3.20312 2.8125,-5.11719 3.046875,-2.03125 8.554691,-2.03125 z m -1.13282,17.07032 0,8.08593 -14.023433,0 q -0.546875,0 -0.859375,0.27344 -0.273438,0.3125 -0.3125,0.70313 -0.03906,0.39062 0.195312,0.70312 0.234375,0.3125 0.664063,0.3125 l 30.664063,0 q 0.50781,0 0.82031,-0.3125 0.3125,-0.3125 0.3125,-0.70312 0,-0.39063 -0.3125,-0.70313 -0.3125,-0.27344 -0.85937,-0.27344 l -14.02344,0 0,-7.92968 q 0,-0.54688 -0.39063,-0.85938 -0.3125,-0.3125 -0.74218,-0.3125 -0.46875,-0.0391 -0.78125,0.23438 -0.35157,0.27343 -0.35157,0.78125 z" />
      <path style="fill:#ccc"
         d="m 127.9892,944.48462 q -1.01562,0 -1.60156,0.66406 -0.50781,0.625 -0.50781,1.5625 0,0.85938 0.50781,1.48438 0.58594,0.70312 1.60156,0.70312 0.97657,0 1.5625,-0.70312 0.54688,-0.625 0.54688,-1.48438 0,-0.9375 -0.54688,-1.5625 -0.58593,-0.66406 -1.5625,-0.66406 z" />
    </g>
  </g>
</svg>
